<svg width="24" height="24" viewBox="0 0 24 24" fill="none" xmlns="http://www.w3.org/2000/svg">
<path d="M9.54004 1.53809C9.78363 1.53809 10.0034 1.55901 10.1982 1.59961C10.393 1.62668 10.5511 1.68755 10.6729 1.78223C10.819 1.90402 10.9598 2.18121 11.0938 2.61426C11.2277 3.0337 11.343 3.53444 11.4404 4.11621C11.5379 4.69812 11.6168 5.32127 11.6777 5.98438C11.7386 6.64734 11.7695 7.27674 11.7695 7.87207C11.7695 7.94351 11.7657 8.01412 11.7646 8.08398C12.1883 7.90551 12.6115 7.75158 13.0352 7.62402C13.5658 7.46426 14.0476 7.38477 14.4805 7.38477H14.6484C14.7041 7.38479 14.7598 7.39105 14.8154 7.4043C15.0109 7.43092 15.2275 7.48458 15.4648 7.56445C15.7162 7.64433 15.9815 7.73103 16.2607 7.82422C16.54 7.9041 16.8269 7.98359 17.1201 8.06348C17.4271 8.14329 17.734 8.19701 18.041 8.22363C18.1387 8.23694 18.2297 8.24316 18.3135 8.24316H18.6064C19.2068 8.24316 19.7656 8.18328 20.2822 8.06348C20.8125 7.93041 21.2037 7.81778 21.4551 7.72461L22 8.98242C21.8324 9.02236 21.6159 9.07601 21.3506 9.14258C21.0993 9.19582 20.8198 9.25571 20.5127 9.32227C20.2057 9.37548 19.8847 9.42823 19.5498 9.48145C19.2287 9.53469 18.9211 9.57493 18.6279 9.60156C18.209 10.2406 17.8593 10.926 17.5801 11.6582C17.3148 12.3771 17.057 13.1895 16.8057 14.0947C17.1268 14.1214 17.4268 14.1884 17.7061 14.2949C17.9991 14.388 18.2224 14.5142 18.376 14.6738L17.4551 15.793C17.2317 15.5933 16.9101 15.4932 16.4912 15.4932H16.4072C16.2816 16.0123 16.1353 16.5647 15.9678 17.1504C15.8142 17.7229 15.6464 18.2822 15.4648 18.8281C15.2973 19.3607 15.1154 19.8602 14.9199 20.3262C14.7384 20.7787 14.5434 21.1453 14.334 21.4248C14.1246 21.691 13.9145 21.9502 13.7051 22.2031C13.5096 22.4294 13.3005 22.6627 13.0771 22.9023C12.8677 23.1287 12.6446 23.3155 12.4072 23.4619L11.2549 22.3027C11.6039 22.0498 11.9321 21.7638 12.2393 21.4443C12.5464 21.1248 12.8193 20.7924 13.0566 20.4463C13.308 20.1001 13.517 19.7534 13.6846 19.4072C13.8661 19.0478 13.9992 18.7082 14.083 18.3887C14.1249 18.2156 14.1802 17.916 14.25 17.4902C14.3198 17.051 14.4108 16.5584 14.5225 16.0127C14.4527 16.0393 14.3898 16.0724 14.334 16.1123C14.2922 16.1522 14.2432 16.1853 14.1875 16.2119C13.9501 16.345 13.6567 16.4121 13.3076 16.4121C12.9446 16.4121 12.5602 16.3513 12.1553 16.2314C11.7645 16.1116 11.422 15.9784 11.1289 15.832L11.7578 14.6543C11.9114 14.7208 12.114 14.787 12.3652 14.8535C12.6165 14.9067 12.8886 14.9336 13.1816 14.9336C13.4469 14.9336 13.7264 14.9005 14.0195 14.834C14.3128 14.7541 14.5996 14.6406 14.8789 14.4941C14.9068 14.4011 14.9275 14.3142 14.9414 14.2344C14.9693 14.1547 14.9975 14.0685 15.0254 13.9756C15.165 13.5362 15.3047 13.0966 15.4443 12.6572C15.5979 12.2179 15.7517 11.7979 15.9053 11.3984C16.0728 10.9992 16.2332 10.6263 16.3867 10.2803C16.5403 9.93419 16.6941 9.64097 16.8477 9.40137C16.4707 9.28157 16.0168 9.16899 15.4863 9.0625C14.9698 8.9427 14.4878 8.88284 14.041 8.88281C13.7619 8.88281 13.5311 8.92214 13.3496 9.00195C13.1541 9.06852 12.8954 9.20165 12.5742 9.40137C12.295 9.57444 11.9322 9.82111 11.4854 10.1406C11.4819 10.143 11.4781 10.1451 11.4746 10.1475C11.3714 10.4131 11.2212 10.7379 11.0205 11.1201C10.777 11.6072 10.4845 12.1279 10.1436 12.6826C9.80253 13.2239 9.43662 13.7793 9.04688 14.3477C8.66945 14.9023 8.29787 15.4162 7.93262 15.8896C7.56723 16.3498 7.23222 16.7426 6.92773 17.0674C6.62356 17.3783 6.38628 17.5609 6.21582 17.6152L4.73535 16.418C4.93014 16.3233 5.13731 16.1945 5.35645 16.0322C5.58786 15.8563 5.80122 15.6798 5.99609 15.5039C6.20306 15.3145 6.38566 15.1319 6.54395 14.9561C6.71438 14.7802 6.84248 14.6315 6.92773 14.5098C6.98863 14.4286 7.11028 14.2521 7.29297 13.9814C7.47564 13.6973 7.67729 13.3662 7.89648 12.9873C8.12782 12.6085 8.36489 12.2024 8.6084 11.7695C8.86417 11.323 9.09568 10.8962 9.30273 10.4902C8.80352 10.9096 8.27394 11.2817 7.71387 11.6064C7.1658 11.9312 6.67823 12.1077 6.25195 12.1348H6.14258C5.83809 12.1348 5.50307 12.053 5.1377 11.8906C4.77231 11.7282 4.43092 11.5188 4.11426 11.2617C3.79771 10.9911 3.52972 10.6868 3.31055 10.3486C3.10358 10.0105 3.00009 9.66518 3 9.31348V9.25195C3.01221 9.00845 3.09127 8.67705 3.2373 8.25781C3.39564 7.82476 3.59086 7.35716 3.82227 6.85645C4.0658 6.34232 4.32196 5.82159 4.58984 5.29395C4.86996 4.76619 5.1378 4.28557 5.39355 3.85254C5.66138 3.40617 5.89849 3.03397 6.10547 2.73633C6.31244 2.42519 6.46506 2.2357 6.5625 2.16797C6.64776 2.1003 6.8003 2.03251 7.01953 1.96484C7.23871 1.88369 7.48852 1.81583 7.76855 1.76172C8.0486 1.69409 8.34112 1.64019 8.64551 1.59961C8.96194 1.55905 9.26009 1.5381 9.54004 1.53809ZM8.57227 3.38574C8.3288 3.38574 8.08526 3.41971 7.8418 3.4873C7.59821 3.55497 7.37847 3.68359 7.18359 3.87305C7.00095 4.03545 6.78204 4.34672 6.52637 4.80664C6.27067 5.26662 6.02086 5.76048 5.77734 6.28809C5.54593 6.81586 5.34434 7.31039 5.17383 7.77051C5.01555 8.23048 4.93015 8.54174 4.91797 8.7041V8.78516C4.91797 8.94755 4.94887 9.11704 5.00977 9.29297C5.07065 9.4688 5.14968 9.63148 5.24707 9.78027C5.34437 9.92888 5.46003 10.0639 5.59375 10.1855C5.72772 10.2938 5.86849 10.3616 6.01465 10.3887C6.0512 10.4022 6.12405 10.4092 6.2334 10.4092C6.35512 10.4092 6.50149 10.3892 6.67188 10.3486C6.84239 10.2945 7.05575 10.2128 7.31152 10.1045C7.46983 10.0368 7.70149 9.86819 8.00586 9.59766C8.31033 9.32701 8.61447 9.02189 8.91895 8.68359C9.23561 8.34527 9.51618 8.00029 9.75977 7.64844C10.0155 7.29664 10.1799 7.00542 10.2529 6.77539C10.3016 6.6267 10.3316 6.45774 10.3438 6.26855C10.3681 6.07923 10.3808 5.88952 10.3809 5.7002C10.3809 5.22667 10.32 4.77977 10.1982 4.36035C10.0886 3.9273 9.91156 3.66309 9.66797 3.56836C9.50971 3.51428 9.33884 3.47334 9.15625 3.44629C8.97375 3.40578 8.77906 3.38575 8.57227 3.38574Z" fill="#14D85C"/>
</svg>
